<svg width="32" height="32" viewBox="0 0 32 32" fill="none" xmlns="http://www.w3.org/2000/svg">
  <defs>
    <linearGradient id="bg" x1="0%" y1="0%" x2="100%" y2="100%">
      <stop offset="0%" stop-color="#00D9FF"/>
      <stop offset="100%" stop-color="#0097A7"/>
    </linearGradient>
  </defs>
  <rect width="32" height="32" rx="6" fill="url(#bg)"/>
  <path d="M16 8C13.2386 8 11 10.2386 11 13V15H10C9.44772 15 9 15.4477 9 16V23C9 23.5523 9.44772 24 10 24H22C22.5523 24 23 23.5523 23 23V16C23 15.4477 22.5523 15 22 15H21V13C21 10.2386 18.7614 8 16 8ZM13 13C13 11.3431 14.3431 10 16 10C17.6569 10 19 11.3431 19 13V15H13V13Z" fill="white"/>
</svg>